# xmcd
#
# Track frame offsets:
#	150
#	20070
#	40714
#	62743
#	79801
#	96571
#	111507
#	130446
#	148612
#	166318
#	183847
#
# Disc length: 2712 seconds
#
# Revision: 1
# Processed by: cddbd v1.5.2PL0 Copyright (c) Steve Scherf et al.
# Submitted via: audiograbber 1.83.01
#
DISCID=9c0a960b
DTITLE=Motorplanet - Watch out
DYEAR=1900
DGENRE=
TTITLE0=Welcome to Motorplanet
TTITLE1=Fish or cut bait
TTITLE2=Never say die
TTITLE3=Need your love tonight
TTITLE4=Female power
TTITLE5=No respect
TTITLE6=Tonight I'm the star
TTITLE7=No worth
TTITLE8=You are not my angel
TTITLE9=Still missing you
TTITLE10=Youd better watch out
EXTD=
EXTT0=
EXTT1=
EXTT2=
EXTT3=
EXTT4=
EXTT5=
EXTT6=
EXTT7=
EXTT8=
EXTT9=
EXTT10=
PLAYORDER=
